<?xml version="1.0" encoding="utf-8"?>
<!-- Generator: Adobe Illustrator 24.0.0, SVG Export Plug-In . SVG Version: 6.00 Build 0)  -->
<svg version="1.1" xmlns="http://www.w3.org/2000/svg" xmlns:xlink="http://www.w3.org/1999/xlink" x="0px" y="0px"
	 viewBox="0 0 178.5 104" style="enable-background:new 0 0 178.5 104;" xml:space="preserve">
<style type="text/css">
	.st0{display:none;}
	.st1{display:inline;fill:#1A1A1A;}
	.st2{display:inline;opacity:0.25;enable-background:new    ;}
	.st3{fill:#E6E6E6;}
	.st4{fill:#CCCCCC;enable-background:new    ;}
	.st5{fill:#FFFFFF;}
	.st6{opacity:0.57;fill:#CCCCCC;enable-background:new    ;}
	.st7{display:inline;fill:#333333;}
	.st8{display:inline;fill:#F2F2F2;}
	.st9{display:inline;fill:#EDEDED;}
	.st10{display:inline;opacity:0.39;fill:#808080;}
	.st11{display:inline;fill:#848484;}
	.st12{display:inline;fill:#9B9B9B;}
	.st13{display:inline;opacity:0.39;fill:#3A3A3A;}
	.st14{display:inline;}
</style>
<g id="Layer_1">
	<g class="st0">
		<path class="st1" d="M124.5,20.6c1.4-2,1.2-2.9,1.2-2.9s0.2-0.9-1.2-2.9s-15-13.6-15.7-14S80.3-1.4,77.4,2.1s-2.6,15.6-2.6,15.6
			s-0.3,12.1,2.6,15.6s30.7,1.7,31.4,1.3S123.1,22.6,124.5,20.6z"/>
		<path class="st2" d="M124.5,20.6c1.4-2,1.2-2.9,1.2-2.9s0.2-0.9-1.2-2.9c-0.9-1.3-6.9-6.6-11.2-10.3c-2.1,3.9-3.4,8.4-3.4,13.2
			s1.2,9.3,3.4,13.2C117.6,27.2,123.6,21.9,124.5,20.6z"/>
	</g>
	<g class="st0">
		<path class="st1" d="M52.2,49.7c2,1.4,2.9,1.2,2.9,1.2s0.9,0.2,2.9-1.2s13.6-15,14-15.7s2.2-28.5-1.3-31.4S55.1,0,55.1,0
			S43-0.2,39.5,2.6S37.8,33.3,38.2,34C38.6,34.7,50.2,48.3,52.2,49.7z"/>
		<path class="st2" d="M52.2,49.7c2,1.4,2.9,1.2,2.9,1.2s0.9,0.2,2.9-1.2c1.3-0.9,6.6-6.9,10.3-11.2c-3.9-2.1-8.4-3.4-13.2-3.4
			c-4.8,0-9.3,1.2-13.2,3.4C45.6,42.8,50.9,48.8,52.2,49.7z"/>
	</g>
	<g class="st0">
		<path class="st1" d="M175.9,2.1c-2.9-3.5-30.7-1.7-31.4-1.3c-0.7,0.4-14.3,12-15.7,14s-1.2,2.9-1.2,2.9s-0.2,0.9,1.2,2.9
			s15,13.6,15.7,14s28.5,2.2,31.4-1.3s2.6-15.6,2.6-15.6S178.8,5.6,175.9,2.1z"/>
		<path class="st2" d="M140.1,4.5c-4.3,3.7-10.3,9-11.2,10.3c-1.4,2-1.2,2.9-1.2,2.9s-0.2,0.9,1.2,2.9c0.9,1.3,6.9,6.6,11.2,10.3
			c2.1-3.9,3.4-8.4,3.4-13.2C143.5,12.9,142.2,8.4,140.1,4.5z"/>
	</g>
	<g class="st0">
		<path class="st1" d="M20.6,1.2c-2-1.4-2.9-1.2-2.9-1.2s-0.9-0.2-2.9,1.2s-13.6,15-14,15.7s-2.2,28.5,1.3,31.4s15.6,2.6,15.6,2.6
			s12.1,0.3,15.6-2.6c3.5-2.9,1.7-30.7,1.3-31.4C34.2,16.2,22.6,2.6,20.6,1.2z"/>
		<path class="st2" d="M20.6,1.2c-2-1.4-2.9-1.2-2.9-1.2s-0.9-0.2-2.9,1.2C13.5,2.1,8.2,8.1,4.5,12.4c3.9,2.1,8.4,3.4,13.2,3.4
			c4.8,0,9.3-1.2,13.2-3.4C27.2,8.1,21.9,2.1,20.6,1.2z"/>
	</g>
	<g>
		<g>
			<path class="st3" d="M124.5,73.6c1.4-2,1.2-2.9,1.2-2.9s0.2-0.9-1.2-2.9s-15-13.6-15.7-14s-28.5-2.2-31.4,1.3s-2.6,15.6-2.6,15.6
				s-0.3,12.1,2.6,15.6s30.7,1.7,31.4,1.3S123.1,75.6,124.5,73.6z"/>
			<path class="st4" d="M124.5,73.6c1.4-2,1.2-2.9,1.2-2.9s0.2-0.9-1.2-2.9c-0.9-1.3-6.9-6.6-11.2-10.3c-2.1,3.9-3.4,8.4-3.4,13.2
				s1.2,9.3,3.4,13.2C117.6,80.2,123.6,74.9,124.5,73.6z"/>
		</g>
		<g>
			<path class="st3" d="M52.2,102.7c2,1.4,2.9,1.2,2.9,1.2s0.9,0.2,2.9-1.2s13.6-15,14-15.7s2.2-28.5-1.3-31.4S55.1,53,55.1,53
				S43,52.8,39.5,55.6S37.8,86.3,38.2,87C38.6,87.7,50.2,101.3,52.2,102.7z"/>
			<path class="st4" d="M52.2,102.7c2,1.4,2.9,1.2,2.9,1.2s0.9,0.2,2.9-1.2c1.3-0.9,6.6-6.9,10.3-11.2c-3.9-2.1-8.4-3.4-13.2-3.4
				c-4.8,0-9.3,1.2-13.2,3.4C45.6,95.8,50.9,101.8,52.2,102.7z"/>
		</g>
		<g>
			<path class="st3" d="M175.9,55.1c-2.9-3.5-30.7-1.7-31.4-1.3c-0.7,0.4-14.3,12-15.7,14c-1.4,2-1.2,2.9-1.2,2.9s-0.2,0.9,1.2,2.9
				s15,13.6,15.7,14s28.5,2.2,31.4-1.3s2.6-15.6,2.6-15.6S178.8,58.6,175.9,55.1z"/>
			<path class="st4" d="M140.1,57.6c-4.3,3.7-10.3,9-11.2,10.3c-1.4,2-1.2,2.9-1.2,2.9s-0.2,0.9,1.2,2.9c0.9,1.3,6.9,6.6,11.2,10.3
				c2.1-3.9,3.4-8.4,3.4-13.2C143.5,66,142.2,61.5,140.1,57.6z"/>
		</g>
		<g>
			<path class="st3" d="M20.6,54.2c-2-1.4-2.9-1.2-2.9-1.2s-0.9-0.2-2.9,1.2s-13.6,15-14,15.7s-2.2,28.5,1.3,31.4s15.6,2.6,15.6,2.6
				s12.1,0.3,15.6-2.6c3.5-2.9,1.7-30.7,1.3-31.4C34.2,69.2,22.6,55.6,20.6,54.2z"/>
			<path class="st4" d="M20.6,54.2c-2-1.4-2.9-1.2-2.9-1.2s-0.9-0.2-2.9,1.2c-1.3,0.9-6.6,6.9-10.3,11.2c3.9,2.1,8.4,3.4,13.2,3.4
				c4.8,0,9.3-1.2,13.2-3.4C27.2,61.1,21.9,55.1,20.6,54.2z"/>
		</g>
	</g>
</g>
<g id="Layer_3">
	<g>
		<path class="st5" d="M124.5,20.6c1.4-2,1.2-2.9,1.2-2.9s0.2-0.9-1.2-2.9s-15-13.6-15.7-14S80.3-1.4,77.4,2.1s-2.6,15.6-2.6,15.6
			s-0.3,12.1,2.6,15.6s30.7,1.7,31.4,1.3C109.6,34.2,123.1,22.6,124.5,20.6z"/>
		<path class="st6" d="M124.5,20.6c1.4-2,1.2-2.9,1.2-2.9s0.2-0.9-1.2-2.9c-0.9-1.3-6.9-6.6-11.2-10.3c-2.1,3.9-3.4,8.4-3.4,13.2
			s1.2,9.3,3.4,13.2C117.6,27.2,123.6,21.9,124.5,20.6z"/>
	</g>
	<g>
		<path class="st5" d="M52.2,49.7c2,1.4,2.9,1.2,2.9,1.2s0.9,0.2,2.9-1.2s13.6-15,14-15.7s2.2-28.5-1.3-31.4S55.1,0,55.1,0
			S43-0.3,39.5,2.6S37.8,33.3,38.2,34C38.6,34.8,50.2,48.3,52.2,49.7z"/>
		<path class="st6" d="M52.2,49.7c2,1.4,2.9,1.2,2.9,1.2s0.9,0.2,2.9-1.2c1.3-0.9,6.6-6.9,10.3-11.2c-3.9-2.1-8.4-3.4-13.2-3.4
			s-9.3,1.2-13.2,3.4C45.6,42.8,50.9,48.8,52.2,49.7z"/>
	</g>
	<g>
		<path class="st5" d="M128.8,14.9c-1.4,2-1.2,2.9-1.2,2.9s-0.2,0.9,1.2,2.9s15,13.6,15.7,14s28.5,2.2,31.4-1.3s2.6-15.6,2.6-15.6
			s0.3-12.1-2.6-15.6s-30.7-1.7-31.4-1.3C143.7,1.3,130.2,12.9,128.8,14.9z"/>
		<path class="st6" d="M128.8,14.9c-1.4,2-1.2,2.9-1.2,2.9s-0.2,0.9,1.2,2.9c0.9,1.3,6.9,6.6,11.2,10.3c2.1-3.9,3.4-8.4,3.4-13.2
			s-1.2-9.3-3.4-13.2C135.7,8.3,129.7,13.6,128.8,14.9z"/>
	</g>
	<g>
		<path class="st5" d="M20.6,1.2c-2-1.4-2.9-1.2-2.9-1.2s-0.9-0.2-2.9,1.2s-13.6,15-14,15.7s-2.2,28.5,1.3,31.4s15.6,2.6,15.6,2.6
			s12.1,0.3,15.6-2.6s1.7-30.7,1.3-31.4C34.2,16.1,22.6,2.6,20.6,1.2z"/>
		<path class="st6" d="M20.6,1.2c-2-1.4-2.9-1.2-2.9-1.2s-0.9-0.2-2.9,1.2C13.5,2.1,8.2,8.1,4.5,12.4c3.9,2.1,8.4,3.4,13.2,3.4
			s9.3-1.2,13.2-3.4C27.2,8.1,21.9,2.1,20.6,1.2z"/>
	</g>
</g>
<g id="Layer_2" class="st0">
	<path class="st7" d="M32,13.8c-0.6-0.9-0.4-0.3-3.9-4.5c-1.7-2-3.6-3.7-5.2-5.7c-0.2-0.3-1.2-1.4-2.6-2c-0.8-0.3-1.6-0.5-1.6-0.5
		C18.2,1,17.8,1,17.5,1c-0.3,0-0.7,0-1.2,0.1c0,0-0.8,0.2-1.6,0.5c-1.4,0.6-2.3,1.8-2.6,2c-1.6,2-3.5,3.7-5.2,5.7
		c-3.6,4.2-3.3,3.6-3.9,4.5c-0.9,1.4-1.4,2.7-2.3,10.5c-1.1,8.8-1,11.1,0.2,13.6c0.4,1,1,2.1,2.1,3.1c2.1,1.9,4.7,2.2,8.9,2.7
		c1.4,0.2,3.3,0.3,5.6,0.3c2.3,0,4.2-0.1,5.6-0.3c4.2-0.5,6.8-0.8,8.9-2.7c1.1-1,1.6-2.1,2.1-3.1c1.1-2.5,1.2-4.8,0.2-13.6
		C33.3,16.5,32.9,15.2,32,13.8z M33,37c-0.4,0.9-0.9,2-2,3c-1.9,1.8-4.4,2.1-8.3,2.6c-1.3,0.1-3.1,0.3-5.2,0.3c-2.2,0-4-0.1-5.2-0.3
		c-3.9-0.4-6.4-0.8-8.3-2.6c-1.1-1-1.5-2-2-3c-1.1-2.4-1.2-4.6-0.2-12.9c0.9-7.3,1.3-8.6,2.2-9.9c0.6-0.9,0.3-0.3,3.7-4.3
		c1.5-1.8,3.3-3.5,4.9-5.3c0.2-0.2,1.1-1.4,2.4-1.9c0.7-0.3,1.5-0.5,1.5-0.5c0.4-0.1,0.8-0.1,1.1-0.1c0.3,0,0.7,0,1.1,0.1
		c0,0,0.8,0.1,1.5,0.5c1.3,0.6,2.2,1.7,2.4,1.9c1.5,1.9,3.3,3.5,4.9,5.3c3.3,4,3.1,3.4,3.7,4.3c0.9,1.3,1.3,2.6,2.2,9.9
		C34.2,32.4,34.1,34.6,33,37z"/>
	<path class="st8" d="M3.4,14.6c-0.6,1.2-1,3.1-1.8,9.3c-1,8.4-0.9,10.6,0.2,13c0.4,0.9,0.9,2,2,3c2,1.8,4.4,2.1,8.4,2.6
		c1.3,0.1,3.1,0.3,5.3,0.3c2.2,0,4-0.1,5.3-0.3c4-0.5,6.5-0.8,8.4-2.6c1.1-1,1.6-2,2-3c1.1-2.4,1.2-4.6,0.2-13
		c-0.8-6.8-1.2-8.4-2-9.7c-4,2.9-8.9,4.6-14.2,4.6C12.1,18.9,7.3,17.3,3.4,14.6z"/>
	<path class="st9" d="M27.4,9.6c-1.6-1.9-3.4-3.5-4.9-5.4c-0.2-0.2-1.1-1.4-2.4-1.9c-0.7-0.3-1.5-0.5-1.5-0.5
		c-0.4-0.1-0.8-0.1-1.1-0.1c-0.3,0-0.7,0-1.1,0.1c0,0-0.8,0.1-1.5,0.5c-1.3,0.6-2.2,1.7-2.4,1.9C10.9,6,9.1,7.7,7.6,9.6
		c-3.4,4-3.1,3.4-3.7,4.3c-0.2,0.2-0.3,0.5-0.4,0.7c3.9,2.7,8.6,4.2,13.7,4.2c5.3,0,10.2-1.7,14.2-4.6c-0.1-0.1-0.1-0.2-0.2-0.4
		C30.6,13,30.8,13.6,27.4,9.6z"/>
	<path class="st10" d="M18,33.3l3.6-3.6c0.4-0.4,0.1-1.1-0.5-1.1l-7.1,0c-0.6,0-0.9,0.7-0.5,1.1l3.6,3.6
		C17.3,33.5,17.7,33.5,18,33.3z"/>
	<path class="st7" d="M40.7,34.1c0.6,0.9,0.4,0.3,3.9,4.5c1.7,2,3.6,3.7,5.2,5.7c0.2,0.3,1.2,1.4,2.6,2c0.8,0.3,1.6,0.5,1.6,0.5
		c0.5,0.1,0.9,0.1,1.2,0.1c0.3,0,0.7,0,1.2-0.1c0,0,0.8-0.2,1.6-0.5c1.4-0.6,2.3-1.8,2.6-2c1.6-2,3.5-3.7,5.2-5.7
		c3.6-4.2,3.3-3.6,3.9-4.5c0.9-1.4,1.4-2.7,2.3-10.5c1.1-8.8,1-11.1-0.2-13.6c-0.4-1-1-2.1-2.1-3.1c-2.1-1.9-4.7-2.2-8.9-2.7
		c-1.4-0.2-3.3-0.3-5.6-0.3c-2.3,0-4.2,0.1-5.6,0.3c-4.2,0.5-6.8,0.8-8.9,2.7c-1.1,1-1.6,2.1-2.1,3.1c-1.1,2.5-1.2,4.8-0.2,13.6
		C39.3,31.4,39.7,32.7,40.7,34.1z M39.6,10.9c0.4-0.9,0.9-2,2-3c1.9-1.8,4.4-2.1,8.3-2.6c1.3-0.1,3.1-0.3,5.2-0.3
		c2.2,0,4,0.1,5.2,0.3c3.9,0.4,6.4,0.8,8.3,2.6c1.1,1,1.5,2,2,3c1.1,2.4,1.2,4.6,0.2,12.9c-0.9,7.3-1.3,8.6-2.2,9.9
		c-0.6,0.9-0.3,0.3-3.7,4.3c-1.5,1.8-3.3,3.5-4.9,5.3c-0.2,0.2-1.1,1.4-2.4,1.9c-0.7,0.3-1.5,0.5-1.5,0.5c-0.4,0.1-0.8,0.1-1.1,0.1
		c-0.3,0-0.7,0-1.1-0.1c0,0-0.8-0.1-1.5-0.5c-1.3-0.6-2.2-1.7-2.4-1.9c-1.5-1.9-3.3-3.5-4.9-5.3c-3.3-4-3.1-3.4-3.7-4.3
		c-0.9-1.3-1.3-2.6-2.2-9.9C38.4,15.5,38.5,13.3,39.6,10.9z"/>
	<path class="st8" d="M69.2,33.3c0.6-1.2,1-3.1,1.8-9.3c1-8.4,0.9-10.6-0.2-13c-0.4-0.9-0.9-2-2-3c-2-1.8-4.4-2.1-8.4-2.6
		c-1.3-0.1-3.1-0.3-5.3-0.3c-2.2,0-4,0.1-5.3,0.3c-4,0.5-6.5,0.8-8.4,2.6c-1.1,1-1.6,2-2,3c-1.1,2.4-1.2,4.6-0.2,13
		c0.8,6.8,1.2,8.4,2,9.7c4-2.9,8.9-4.6,14.2-4.6C60.6,29,65.3,30.6,69.2,33.3z"/>
	<path class="st9" d="M45.2,38.3c1.6,1.9,3.4,3.5,4.9,5.4c0.2,0.2,1.1,1.4,2.4,1.9c0.7,0.3,1.5,0.5,1.5,0.5c0.4,0.1,0.8,0.1,1.1,0.1
		c0.3,0,0.7,0,1.1-0.1c0,0,0.8-0.1,1.5-0.5c1.3-0.6,2.2-1.7,2.4-1.9c1.5-1.9,3.3-3.5,4.9-5.4c3.4-4,3.1-3.4,3.7-4.3
		c0.2-0.2,0.3-0.5,0.4-0.7c-3.9-2.7-8.6-4.2-13.7-4.2c-5.3,0-10.2,1.7-14.2,4.6c0.1,0.1,0.1,0.2,0.2,0.4
		C42,34.9,41.8,34.3,45.2,38.3z"/>
	<path class="st10" d="M54.6,14.6l-3.6,3.6c-0.4,0.4-0.1,1.1,0.5,1.1l7.1,0c0.6,0,0.9-0.7,0.5-1.1l-3.6-3.6
		C55.3,14.4,54.9,14.4,54.6,14.6z"/>
	<path class="st7" d="M111.8,32.1c0.9-0.6,0.3-0.4,4.5-3.9c2-1.7,3.7-3.6,5.7-5.2c0.3-0.2,1.4-1.2,2-2.6c0.3-0.8,0.5-1.6,0.5-1.6
		c0.1-0.5,0.1-0.9,0.1-1.2c0-0.3,0-0.7-0.1-1.2c0,0-0.2-0.8-0.5-1.6c-0.6-1.4-1.8-2.3-2-2.6c-2-1.6-3.7-3.5-5.7-5.2
		c-4.2-3.6-3.6-3.3-4.5-3.9c-1.4-0.9-2.7-1.4-10.5-2.3c-8.8-1.1-11.1-1-13.6,0.2c-1,0.4-2.1,1-3.1,2.1c-1.9,2.1-2.2,4.7-2.7,8.9
		c-0.2,1.4-0.3,3.3-0.3,5.6c0,2.3,0.1,4.2,0.3,5.6c0.5,4.2,0.8,6.8,2.7,8.9c1,1.1,2.1,1.6,3.1,2.1c2.5,1.1,4.8,1.2,13.6,0.2
		C109.1,33.5,110.4,33.1,111.8,32.1z M88.5,33.2c-0.9-0.4-2-0.9-3-2c-1.8-1.9-2.1-4.4-2.6-8.3c-0.1-1.3-0.3-3.1-0.3-5.2
		c0-2.2,0.1-4,0.3-5.2c0.4-3.9,0.8-6.4,2.6-8.3c1-1.1,2-1.5,3-2C90.9,1.1,93.1,1,101.4,2c7.3,0.9,8.6,1.3,9.9,2.2
		c0.9,0.6,0.3,0.3,4.3,3.7c1.8,1.5,3.5,3.3,5.3,4.9c0.2,0.2,1.4,1.1,1.9,2.4c0.3,0.7,0.5,1.5,0.5,1.5c0.1,0.4,0.1,0.8,0.1,1.1
		c0,0.3,0,0.7-0.1,1.1c0,0-0.1,0.8-0.5,1.5c-0.6,1.3-1.7,2.2-1.9,2.4c-1.9,1.5-3.5,3.3-5.3,4.9c-4,3.3-3.4,3.1-4.3,3.7
		c-1.3,0.9-2.6,1.3-9.9,2.2C93.1,34.4,90.9,34.3,88.5,33.2z"/>
	<path class="st8" d="M110.9,3.6c-1.2-0.6-3.1-1-9.3-1.8c-8.4-1-10.6-0.9-13,0.2c-0.9,0.4-2,0.9-3,2c-1.8,2-2.1,4.4-2.6,8.4
		c-0.1,1.3-0.3,3.1-0.3,5.3c0,2.2,0.1,4,0.3,5.3c0.5,4,0.8,6.5,2.6,8.4c1,1.1,2,1.6,3,2c2.4,1.1,4.6,1.2,13,0.2
		c6.8-0.8,8.4-1.2,9.7-2c-2.9-4-4.6-8.9-4.6-14.2C106.7,12.2,108.2,7.5,110.9,3.6z"/>
	<path class="st9" d="M116,27.6c1.9-1.6,3.5-3.4,5.4-4.9c0.2-0.2,1.4-1.1,1.9-2.4c0.3-0.7,0.5-1.5,0.5-1.5c0.1-0.4,0.1-0.8,0.1-1.1
		c0-0.3,0-0.7-0.1-1.1c0,0-0.1-0.8-0.5-1.5c-0.6-1.3-1.7-2.2-1.9-2.4c-1.9-1.5-3.5-3.3-5.4-4.9c-4-3.4-3.4-3.1-4.3-3.7
		c-0.2-0.2-0.5-0.3-0.7-0.4c-2.7,3.9-4.2,8.6-4.2,13.7c0,5.3,1.7,10.2,4.6,14.2c0.1-0.1,0.2-0.1,0.4-0.2
		C112.5,30.8,111.9,31,116,27.6z"/>
	<path class="st10" d="M92.3,18.2l3.6,3.6c0.4,0.4,1.1,0.1,1.1-0.5l0-7.1c0-0.6-0.7-0.9-1.1-0.5l-3.6,3.6C92,17.5,92,17.9,92.3,18.2
		z"/>
	<path class="st7" d="M141.3,3.3c-0.9,0.6-0.3,0.4-4.5,3.9c-2,1.7-3.7,3.6-5.7,5.2c-0.3,0.2-1.4,1.2-2,2.6c-0.3,0.8-0.5,1.6-0.5,1.6
		c-0.1,0.5-0.1,0.9-0.1,1.2c0,0.3,0,0.7,0.1,1.2c0,0,0.2,0.8,0.5,1.6c0.6,1.4,1.8,2.3,2,2.6c2,1.6,3.7,3.5,5.7,5.2
		c4.2,3.6,3.6,3.3,4.5,3.9c1.4,0.9,2.7,1.4,10.5,2.3c8.8,1.1,11.1,1,13.6-0.2c1-0.4,2.1-1,3.1-2.1c1.9-2.1,2.2-4.7,2.7-8.9
		c0.2-1.4,0.3-3.3,0.3-5.6c0-2.3-0.1-4.2-0.3-5.6c-0.5-4.2-0.8-6.8-2.7-8.9c-1-1.1-2.1-1.6-3.1-2.1c-2.5-1.1-4.8-1.2-13.6-0.2
		C144,1.9,142.7,2.3,141.3,3.3z M164.5,2.2c0.9,0.4,2,0.9,3,2c1.8,1.9,2.1,4.4,2.6,8.3c0.1,1.3,0.3,3.1,0.3,5.2c0,2.2-0.1,4-0.3,5.2
		c-0.4,3.9-0.8,6.4-2.6,8.3c-1,1.1-2,1.5-3,2c-2.4,1.1-4.6,1.2-12.9,0.2c-7.3-0.9-8.6-1.3-9.9-2.2c-0.9-0.6-0.3-0.3-4.3-3.7
		c-1.8-1.5-3.5-3.3-5.3-4.9c-0.2-0.2-1.4-1.1-1.9-2.4c-0.3-0.7-0.5-1.5-0.5-1.5c-0.1-0.4-0.1-0.8-0.1-1.1c0-0.3,0-0.7,0.1-1.1
		c0,0,0.1-0.8,0.5-1.5c0.6-1.3,1.7-2.2,1.9-2.4c1.9-1.5,3.5-3.3,5.3-4.9c4-3.3,3.4-3.1,4.3-3.7c1.3-0.9,2.6-1.3,9.9-2.2
		C160,1,162.1,1.1,164.5,2.2z"/>
	<path class="st8" d="M142.2,31.8c1.2,0.6,3.1,1,9.3,1.8c8.4,1,10.6,0.9,13-0.2c0.9-0.4,2-0.9,3-2c1.8-2,2.1-4.4,2.6-8.4
		c0.1-1.3,0.3-3.1,0.3-5.3c0-2.2-0.1-4-0.3-5.3c-0.5-4-0.8-6.5-2.6-8.4c-1-1.1-2-1.6-3-2c-2.4-1.1-4.6-1.2-13-0.2
		c-6.8,0.8-8.4,1.2-9.7,2c2.9,4,4.6,8.9,4.6,14.2C146.4,23.2,144.8,27.9,142.2,31.8z"/>
	<path class="st9" d="M137.1,7.8c-1.9,1.6-3.5,3.4-5.4,4.9c-0.2,0.2-1.4,1.1-1.9,2.4c-0.3,0.7-0.5,1.5-0.5,1.5
		c-0.1,0.4-0.1,0.8-0.1,1.1c0,0.3,0,0.7,0.1,1.1c0,0,0.1,0.8,0.5,1.5c0.6,1.3,1.7,2.2,1.9,2.4c1.9,1.5,3.5,3.3,5.4,4.9
		c4,3.4,3.4,3.1,4.3,3.7c0.2,0.2,0.5,0.3,0.7,0.4c2.7-3.9,4.2-8.6,4.2-13.7c0-5.3-1.7-10.2-4.6-14.2c-0.1,0.1-0.2,0.1-0.4,0.2
		C140.6,4.6,141.1,4.4,137.1,7.8z"/>
	<path class="st10" d="M160.8,17.2l-3.6-3.6c-0.4-0.4-1.1-0.1-1.1,0.5v7.1c0,0.6,0.7,0.9,1.1,0.5l3.6-3.6
		C161.1,17.9,161.1,17.5,160.8,17.2z"/>
	<path class="st7" d="M32.1,66.6c-0.6-0.9-0.4-0.3-3.9-4.5c-1.7-2-3.6-3.7-5.2-5.7c-0.2-0.3-1.2-1.4-2.6-2c-0.8-0.3-1.6-0.5-1.6-0.5
		c-0.5-0.1-0.9-0.1-1.2-0.1c-0.3,0-0.7,0-1.2,0.1c0,0-0.8,0.2-1.6,0.5c-1.4,0.6-2.3,1.8-2.6,2c-1.6,2-3.5,3.7-5.2,5.7
		c-3.6,4.2-3.3,3.6-3.9,4.5C2.3,68,1.9,69.3,0.9,77.1c-1.1,8.8-1,11.1,0.2,13.6c0.4,1,1,2.1,2.1,3.1c2.1,1.9,4.7,2.2,8.9,2.7
		c1.4,0.2,3.3,0.3,5.6,0.3c2.3,0,4.2-0.1,5.6-0.3c4.2-0.5,6.8-0.8,8.9-2.7c1.1-1,1.6-2.1,2.1-3.1c1.1-2.5,1.2-4.8,0.2-13.6
		C33.5,69.3,33.1,68,32.1,66.6z M33.2,89.9c-0.4,0.9-0.9,2-2,3c-1.9,1.8-4.4,2.1-8.3,2.6c-1.3,0.1-3.1,0.3-5.2,0.3
		c-2.2,0-4-0.1-5.2-0.3c-3.9-0.4-6.4-0.8-8.3-2.6c-1.1-1-1.5-2-2-3C1.1,87.5,1,85.3,2,77c0.9-7.3,1.3-8.6,2.2-9.9
		c0.6-0.9,0.3-0.3,3.7-4.3c1.5-1.8,3.3-3.5,4.9-5.3c0.2-0.2,1.1-1.4,2.4-1.9c0.7-0.3,1.5-0.5,1.5-0.5C17,55,17.4,55,17.7,55
		c0.3,0,0.7,0,1.1,0.1c0,0,0.8,0.1,1.5,0.5c1.3,0.6,2.2,1.7,2.4,1.9c1.5,1.9,3.3,3.5,4.9,5.3c3.3,4,3.1,3.4,3.7,4.3
		c0.9,1.3,1.3,2.6,2.2,9.9C34.4,85.3,34.3,87.5,33.2,89.9z"/>
	<path class="st11" d="M3.6,67.5c-0.6,1.2-1,3.1-1.8,9.3c-1,8.4-0.9,10.6,0.2,13c0.4,0.9,0.9,2,2,3c2,1.8,4.4,2.1,8.4,2.6
		c1.3,0.1,3.1,0.3,5.3,0.3c2.2,0,4-0.1,5.3-0.3c4-0.5,6.5-0.8,8.4-2.6c1.1-1,1.6-2,2-3c1.1-2.4,1.2-4.6,0.2-13
		c-0.8-6.8-1.2-8.4-2-9.7c-4,2.9-8.9,4.6-14.2,4.6C12.2,71.7,7.5,70.2,3.6,67.5z"/>
	<path class="st12" d="M27.6,62.4c-1.6-1.9-3.4-3.5-4.9-5.4c-0.2-0.2-1.1-1.4-2.4-1.9c-0.7-0.3-1.5-0.5-1.5-0.5
		c-0.4-0.1-0.8-0.1-1.1-0.1c-0.3,0-0.7,0-1.1,0.1c0,0-0.8,0.1-1.5,0.5c-1.3,0.6-2.2,1.7-2.4,1.9c-1.5,1.9-3.3,3.5-4.9,5.4
		c-3.4,4-3.1,3.4-3.7,4.3c-0.2,0.2-0.3,0.5-0.4,0.7c3.9,2.7,8.6,4.2,13.7,4.2c5.3,0,10.2-1.7,14.2-4.6c-0.1-0.1-0.1-0.2-0.2-0.4
		C30.8,65.9,31,66.5,27.6,62.4z"/>
	<path class="st13" d="M18.2,86.1l3.6-3.6c0.4-0.4,0.1-1.1-0.5-1.1h-7.1c-0.6,0-0.9,0.7-0.5,1.1l3.6,3.6
		C17.5,86.4,17.9,86.4,18.2,86.1z"/>
	<path class="st7" d="M40.7,90.1c0.6,0.9,0.4,0.3,3.9,4.5c1.7,2,3.6,3.7,5.2,5.7c0.2,0.3,1.2,1.4,2.6,2c0.8,0.3,1.6,0.5,1.6,0.5
		c0.5,0.1,0.9,0.1,1.2,0.1c0.3,0,0.7,0,1.2-0.1c0,0,0.8-0.2,1.6-0.5c1.4-0.6,2.3-1.8,2.6-2c1.6-2,3.5-3.7,5.2-5.7
		c3.6-4.2,3.3-3.6,3.9-4.5c0.9-1.4,1.4-2.7,2.3-10.5c1.1-8.8,1-11.1-0.2-13.6c-0.4-1-1-2.1-2.1-3.1c-2.1-1.9-4.7-2.2-8.9-2.7
		c-1.4-0.2-3.3-0.3-5.6-0.3c-2.3,0-4.2,0.1-5.6,0.3c-4.2,0.5-6.8,0.8-8.9,2.7c-1.1,1-1.6,2.1-2.1,3.1c-1.1,2.5-1.2,4.8-0.2,13.6
		C39.3,87.4,39.7,88.7,40.7,90.1z M39.6,66.8c0.4-0.9,0.9-2,2-3c1.9-1.8,4.4-2.1,8.3-2.6c1.3-0.1,3.1-0.3,5.2-0.3
		c2.2,0,4,0.1,5.2,0.3c3.9,0.4,6.4,0.8,8.3,2.6c1.1,1,1.5,2,2,3c1.1,2.4,1.2,4.6,0.2,12.9c-0.9,7.3-1.3,8.6-2.2,9.9
		c-0.6,0.9-0.3,0.3-3.7,4.3c-1.5,1.8-3.3,3.5-4.9,5.3c-0.2,0.2-1.1,1.4-2.4,1.9c-0.7,0.3-1.5,0.5-1.5,0.5c-0.4,0.1-0.8,0.1-1.1,0.1
		c-0.3,0-0.7,0-1.1-0.1c0,0-0.8-0.1-1.5-0.5c-1.3-0.6-2.2-1.7-2.4-1.9c-1.5-1.9-3.3-3.5-4.9-5.3c-3.3-4-3.1-3.4-3.7-4.3
		c-0.9-1.3-1.3-2.6-2.2-9.9C38.4,71.4,38.5,69.2,39.6,66.8z"/>
	<path class="st11" d="M69.2,89.2c0.6-1.2,1-3.1,1.8-9.3c1-8.4,0.9-10.6-0.2-13c-0.4-0.9-0.9-2-2-3c-2-1.8-4.4-2.1-8.4-2.6
		c-1.3-0.1-3.1-0.3-5.3-0.3c-2.2,0-4,0.1-5.3,0.3c-4,0.5-6.5,0.8-8.4,2.6c-1.1,1-1.6,2-2,3c-1.1,2.4-1.2,4.6-0.2,13
		c0.8,6.8,1.2,8.4,2,9.7c4-2.9,8.9-4.6,14.2-4.6C60.6,85,65.3,86.5,69.2,89.2z"/>
	<path class="st12" d="M45.2,94.3c1.6,1.9,3.4,3.5,4.9,5.4c0.2,0.2,1.1,1.4,2.4,1.9c0.7,0.3,1.5,0.5,1.5,0.5
		c0.4,0.1,0.8,0.1,1.1,0.1c0.3,0,0.7,0,1.1-0.1c0,0,0.8-0.1,1.5-0.5c1.3-0.6,2.2-1.7,2.4-1.9c1.5-1.9,3.3-3.5,4.9-5.4
		c3.4-4,3.1-3.4,3.7-4.3c0.2-0.2,0.3-0.5,0.4-0.7c-3.9-2.7-8.6-4.2-13.7-4.2c-5.3,0-10.2,1.7-14.2,4.6c0.1,0.1,0.1,0.2,0.2,0.4
		C42,90.8,41.8,90.2,45.2,94.3z"/>
	<path class="st13" d="M54.6,70.6l-3.6,3.6c-0.4,0.4-0.1,1.1,0.5,1.1h7.1c0.6,0,0.9-0.7,0.5-1.1l-3.6-3.6
		C55.3,70.3,54.9,70.3,54.6,70.6z"/>
	<path class="st7" d="M111.8,85.1c0.9-0.6,0.3-0.4,4.5-3.9c2-1.7,3.7-3.6,5.7-5.2c0.3-0.2,1.4-1.2,2-2.6c0.3-0.8,0.5-1.6,0.5-1.6
		c0.1-0.5,0.1-0.9,0.1-1.2c0-0.3,0-0.7-0.1-1.2c0,0-0.2-0.8-0.5-1.6c-0.6-1.4-1.8-2.3-2-2.6c-2-1.6-3.7-3.5-5.7-5.2
		c-4.2-3.6-3.6-3.3-4.5-3.9c-1.4-0.9-2.7-1.4-10.5-2.3c-8.8-1.1-11.1-1-13.6,0.2c-1,0.4-2.1,1-3.1,2.1c-1.9,2.1-2.2,4.7-2.7,8.9
		c-0.2,1.4-0.3,3.3-0.3,5.6c0,2.3,0.1,4.2,0.3,5.6c0.5,4.2,0.8,6.8,2.7,8.9c1,1.1,2.1,1.6,3.1,2.1c2.5,1.1,4.8,1.2,13.6,0.2
		C109.1,86.5,110.4,86.1,111.8,85.1z M88.5,86.2c-0.9-0.4-2-0.9-3-2c-1.8-1.9-2.1-4.4-2.6-8.3c-0.1-1.3-0.3-3.1-0.3-5.2
		c0-2.2,0.1-4,0.3-5.2c0.4-3.9,0.8-6.4,2.6-8.3c1-1.1,2-1.5,3-2c2.4-1.1,4.6-1.2,12.9-0.2c7.3,0.9,8.6,1.3,9.9,2.2
		c0.9,0.6,0.3,0.3,4.3,3.7c1.8,1.5,3.5,3.3,5.3,4.9c0.2,0.2,1.4,1.1,1.9,2.4c0.3,0.7,0.5,1.5,0.5,1.5c0.1,0.4,0.1,0.8,0.1,1.1
		c0,0.3,0,0.7-0.1,1.1c0,0-0.1,0.8-0.5,1.5c-0.6,1.3-1.7,2.2-1.9,2.4c-1.9,1.5-3.5,3.3-5.3,4.9c-4,3.3-3.4,3.1-4.3,3.7
		c-1.3,0.9-2.6,1.3-9.9,2.2C93.1,87.4,90.9,87.3,88.5,86.2z"/>
	<path class="st11" d="M110.9,56.6c-1.2-0.6-3.1-1-9.3-1.8c-8.4-1-10.6-0.9-13,0.2c-0.9,0.4-2,0.9-3,2c-1.8,2-2.1,4.4-2.6,8.4
		c-0.1,1.3-0.3,3.1-0.3,5.3c0,2.2,0.1,4,0.3,5.3c0.5,4,0.8,6.5,2.6,8.4c1,1.1,2,1.6,3,2c2.4,1.1,4.6,1.2,13,0.2
		c6.8-0.8,8.4-1.2,9.7-2c-2.9-4-4.6-8.9-4.6-14.2C106.7,65.2,108.2,60.5,110.9,56.6z"/>
	<path class="st12" d="M116,80.6c1.9-1.6,3.5-3.4,5.4-4.9c0.2-0.2,1.4-1.1,1.9-2.4c0.3-0.7,0.5-1.5,0.5-1.5c0.1-0.4,0.1-0.8,0.1-1.1
		c0-0.3,0-0.7-0.1-1.1c0,0-0.1-0.8-0.5-1.5c-0.6-1.3-1.7-2.2-1.9-2.4c-1.9-1.5-3.5-3.3-5.4-4.9c-4-3.4-3.4-3.1-4.3-3.7
		c-0.2-0.2-0.5-0.3-0.7-0.4c-2.7,3.9-4.2,8.6-4.2,13.7c0,5.3,1.7,10.2,4.6,14.2c0.1-0.1,0.2-0.1,0.4-0.2
		C112.5,83.8,111.9,84,116,80.6z"/>
	<path class="st13" d="M92.3,71.2l3.6,3.6c0.4,0.4,1.1,0.1,1.1-0.5l0-7.1c0-0.6-0.7-0.9-1.1-0.5l-3.6,3.6C92,70.5,92,70.9,92.3,71.2
		z"/>
	<path class="st7" d="M141.3,56.3c-0.9,0.6-0.3,0.4-4.5,3.9c-2,1.7-3.7,3.6-5.7,5.2c-0.3,0.2-1.4,1.2-2,2.6
		c-0.3,0.8-0.5,1.6-0.5,1.6c-0.1,0.5-0.1,0.9-0.1,1.2c0,0.3,0,0.7,0.1,1.2c0,0,0.2,0.8,0.5,1.6c0.6,1.4,1.8,2.3,2,2.6
		c2,1.6,3.7,3.5,5.7,5.2c4.2,3.6,3.6,3.3,4.5,3.9c1.4,0.9,2.7,1.4,10.5,2.3c8.8,1.1,11.1,1,13.6-0.2c1-0.4,2.1-1,3.1-2.1
		c1.9-2.1,2.2-4.7,2.7-8.9c0.2-1.4,0.3-3.3,0.3-5.6c0-2.3-0.1-4.2-0.3-5.6c-0.5-4.2-0.8-6.8-2.7-8.9c-1-1.1-2.1-1.6-3.1-2.1
		c-2.5-1.1-4.8-1.2-13.6-0.2C144,54.9,142.7,55.3,141.3,56.3z M164.5,55.2c0.9,0.4,2,0.9,3,2c1.8,1.9,2.1,4.4,2.6,8.3
		c0.1,1.3,0.3,3.1,0.3,5.2c0,2.2-0.1,4-0.3,5.2c-0.4,3.9-0.8,6.4-2.6,8.3c-1,1.1-2,1.5-3,2c-2.4,1.1-4.6,1.2-12.9,0.2
		c-7.3-0.9-8.6-1.3-9.9-2.2c-0.9-0.6-0.3-0.3-4.3-3.7c-1.8-1.5-3.5-3.3-5.3-4.9c-0.2-0.2-1.4-1.1-1.9-2.4c-0.3-0.7-0.5-1.5-0.5-1.5
		c-0.1-0.4-0.1-0.8-0.1-1.1c0-0.3,0-0.7,0.1-1.1c0,0,0.1-0.8,0.5-1.5c0.6-1.3,1.7-2.2,1.9-2.4c1.9-1.5,3.5-3.3,5.3-4.9
		c4-3.3,3.4-3.1,4.3-3.7c1.3-0.9,2.6-1.3,9.9-2.2C160,54,162.1,54.1,164.5,55.2z"/>
	<path class="st11" d="M142.2,84.8c1.2,0.6,3.1,1,9.3,1.8c8.4,1,10.6,0.9,13-0.2c0.9-0.4,2-0.9,3-2c1.8-2,2.1-4.4,2.6-8.4
		c0.1-1.3,0.3-3.1,0.3-5.3c0-2.2-0.1-4-0.3-5.3c-0.5-4-0.8-6.5-2.6-8.4c-1-1.1-2-1.6-3-2c-2.4-1.1-4.6-1.2-13-0.2
		c-6.8,0.8-8.4,1.2-9.7,2c2.9,4,4.6,8.9,4.6,14.2C146.4,76.2,144.8,80.9,142.2,84.8z"/>
	<path class="st12" d="M137.1,60.8c-1.9,1.6-3.5,3.4-5.4,4.9c-0.2,0.2-1.4,1.1-1.9,2.4c-0.3,0.7-0.5,1.5-0.5,1.5
		c-0.1,0.4-0.1,0.8-0.1,1.1c0,0.3,0,0.7,0.1,1.1c0,0,0.1,0.8,0.5,1.5c0.6,1.3,1.7,2.2,1.9,2.4c1.9,1.5,3.5,3.3,5.4,4.9
		c4,3.4,3.4,3.1,4.3,3.7c0.2,0.2,0.5,0.3,0.7,0.4c2.7-3.9,4.2-8.6,4.2-13.7c0-5.3-1.7-10.2-4.6-14.2c-0.1,0.1-0.2,0.1-0.4,0.2
		C140.6,57.6,141.1,57.4,137.1,60.8z"/>
	<path class="st13" d="M160.8,70.2l-3.6-3.6c-0.4-0.4-1.1-0.1-1.1,0.5v7.1c0,0.6,0.7,0.9,1.1,0.5l3.6-3.6
		C161.1,70.9,161.1,70.5,160.8,70.2z"/>
	<g class="st14">
		<path class="st5" d="M84,22.1c-2-1.4-2.9-1.2-2.9-1.2s-0.9-0.2-2.9,1.2s-13.6,15-14,15.7c-0.4,0.7-2.2,28.5,1.3,31.4
			c3.5,2.9,15.6,2.6,15.6,2.6s12.1,0.3,15.6-2.6s1.7-30.7,1.3-31.4C97.6,37,86,23.5,84,22.1z"/>
		<path class="st6" d="M84,22.1c-2-1.4-2.9-1.2-2.9-1.2s-0.9-0.2-2.9,1.2C76.9,23,71.6,29,67.9,33.3c3.9,2.1,8.4,3.4,13.2,3.4
			s9.3-1.2,13.2-3.4C90.6,29,85.3,23,84,22.1z"/>
	</g>
</g>
</svg>
